<svg width="512" height="512" viewBox="0 0 512 512" fill="none" xmlns="http://www.w3.org/2000/svg">
<path d="M74.7422 328.078C71.8438 333.859 72.9727 340.848 77.5391 345.418L81.207 349.086C91.8047 336.527 104.156 322.898 119.137 307.922C120.195 306.863 121.285 306.352 122.348 305.375L98.75 281.773C85.0313 306.586 77.0313 323.539 74.7422 328.078Z" fill="white"/>
<path d="M203.988 392.773C188.973 407.789 175.379 420.164 162.891 430.77L167.859 435.738C172.469 440.348 179.523 441.457 185.324 438.473C193.094 434.469 205.312 428.719 231.25 414.273L206.539 389.562C205.563 390.629 205.051 391.715 203.988 392.773V392.773Z" fill="white"/>
<path d="M195.992 315.938C185.152 305.098 154.668 314.816 140.348 329.133C92.4414 377.039 70.8047 411.004 61.0898 431.059C58.3047 436.805 59.4648 443.684 63.9805 448.199C68.5039 452.727 75.3945 453.875 81.1445 451.09C100.75 441.57 134.301 420.035 182.777 371.563C198.523 355.809 206.293 326.242 196.004 315.949L195.992 315.938Z" fill="white"/>
<path d="M46.8203 199.711L4.39453 242.137C-0.402345 246.934 -1.38672 254.359 2.01172 260.242C5.32812 266.047 12.2734 269.004 18.8828 267.234C41.8125 261.086 61.9883 258.488 75.5742 261.973C94.9023 227.609 115.672 195.977 137.668 167.242C124.945 159.086 82.9023 163.629 46.8203 199.711V199.711Z" fill="white"/>
<path d="M253.894 510.391C259.672 513.312 266.668 512.184 271.242 507.605L313.672 465.18C346.519 432.324 352.301 389.934 344.848 376.492C312.801 400.645 280.336 421.039 250.047 438.113C252.137 449.914 250.746 461.363 245.805 494.801C244.84 501.273 248.184 507.535 253.894 510.391V510.391Z" fill="white"/>
<path d="M297.801 150.469C280.258 168.016 280.258 196.559 297.801 214.105C315.348 231.652 343.895 231.652 361.441 214.105C378.988 196.559 378.988 168.016 361.441 150.469C343.895 132.922 315.348 132.922 297.801 150.469Z" fill="white"/>
<path d="M511.117 14.6328C510.578 7.21483 504.672 1.35155 497.277 0.796858C460.438 -1.97658 423.742 2.55467 387.773 13.5547C390.48 38.2656 403.262 65.0078 425.082 86.8281C447.164 108.906 474.633 121.684 499.785 124.074C509.473 90.125 514.066 53.7656 511.117 14.6328V14.6328Z" fill="white"/>
<path d="M403.871 108.043C378.91 83.082 363.668 53.1445 358.777 23.9961C268.703 60.9375 182.477 141.609 114.34 254.938L148.191 288.789C171.32 279.398 199.398 276.918 217.207 294.723C235.039 312.559 232.512 340.625 223.125 363.723L258.09 398.688C345.285 346.137 446.801 263.344 489.969 153.191C460.109 148.68 429.238 133.41 403.871 108.043V108.043ZM382.652 235.32C353.414 264.559 305.832 264.559 276.59 235.32C247.348 206.078 247.348 158.492 276.59 129.254C305.832 100.016 353.414 100.016 382.652 129.254C411.895 158.496 411.895 206.078 382.652 235.32Z" fill="white"/>
</svg>
