<svg width="512" height="512" viewBox="0 0 512 512" fill="none" xmlns="http://www.w3.org/2000/svg">
<path d="M437.26 328.078C440.158 333.859 439.029 340.848 434.463 345.418L430.795 349.086C420.197 336.527 407.846 322.898 392.865 307.922C391.807 306.863 390.717 306.352 389.654 305.375L413.252 281.773C426.971 306.586 434.971 323.539 437.26 328.078Z" fill="white"/>
<path d="M308.014 392.773C323.029 407.789 336.623 420.164 349.111 430.77L344.143 435.738C339.533 440.348 332.479 441.457 326.678 438.473C318.908 434.469 306.69 428.719 280.752 414.273L305.463 389.562C306.44 390.629 306.951 391.715 308.014 392.773V392.773Z" fill="white"/>
<path d="M316.01 315.938C326.85 305.098 357.334 314.816 371.654 329.133C419.561 377.039 441.197 411.004 450.912 431.059C453.697 436.805 452.537 443.684 448.022 448.199C443.498 452.727 436.608 453.875 430.858 451.09C411.252 441.57 377.701 420.035 329.225 371.563C313.479 355.809 305.709 326.242 315.998 315.949L316.01 315.938Z" fill="white"/>
<path d="M465.182 199.711L507.608 242.137C512.404 246.934 513.389 254.359 509.99 260.242C506.674 266.047 499.729 269.004 493.119 267.234C470.19 261.086 450.014 258.488 436.428 261.973C417.1 227.609 396.33 195.977 374.334 167.242C387.057 159.086 429.1 163.629 465.182 199.711V199.711Z" fill="white"/>
<path d="M258.108 510.391C252.33 513.312 245.334 512.184 240.76 507.605L198.33 465.18C165.483 432.324 159.701 389.934 167.154 376.492C199.201 400.645 231.666 421.039 261.955 438.113C259.865 449.914 261.256 461.363 266.197 494.801C267.162 501.273 263.819 507.535 258.108 510.391V510.391Z" fill="white"/>
<path d="M214.201 150.469C231.744 168.016 231.744 196.559 214.201 214.105C196.654 231.652 168.108 231.652 150.561 214.105C133.014 196.559 133.014 168.016 150.561 150.469C168.108 132.922 196.654 132.922 214.201 150.469Z" fill="white"/>
<path d="M0.884888 14.6328C1.42395 7.21483 7.3302 1.35155 14.7247 0.796858C51.5646 -1.97658 88.2599 2.55467 124.229 13.5547C121.522 38.2656 108.74 65.0078 86.92 86.8281C64.838 108.906 37.3693 121.684 12.2169 124.074C2.52942 90.125 -2.06433 53.7656 0.884888 14.6328V14.6328Z" fill="white"/>
<path d="M108.131 108.043C133.092 83.082 148.334 53.1445 153.225 23.9961C243.299 60.9375 329.526 141.609 397.662 254.938L363.811 288.789C340.682 279.398 312.604 276.918 294.795 294.723C276.963 312.559 279.49 340.625 288.877 363.723L253.912 398.688C166.717 346.137 65.2013 263.344 22.0333 153.191C51.8927 148.68 82.7638 133.41 108.131 108.043V108.043ZM129.35 235.32C158.588 264.559 206.17 264.559 235.412 235.32C264.654 206.078 264.654 158.492 235.412 129.254C206.17 100.016 158.588 100.016 129.35 129.254C100.108 158.496 100.108 206.078 129.35 235.32Z" fill="white"/>
</svg>
